<svg width="80" height="80" viewBox="0 0 80 80" fill="none" xmlns="http://www.w3.org/2000/svg">
<circle cx="40" cy="40" r="40" fill="#0000FF"/>
<path d="M50.9844 27.375H48.25V25.9167C48.25 25.5299 48.0964 25.159 47.8229 24.8855C47.5494 24.612 47.1785 24.4583 46.7917 24.4583C46.4049 24.4583 46.034 24.612 45.7605 24.8855C45.487 25.159 45.3333 25.5299 45.3333 25.9167V27.375H40.9583V25.9167C40.9583 25.5299 40.8047 25.159 40.5312 24.8855C40.2577 24.612 39.8868 24.4583 39.5 24.4583C39.1132 24.4583 38.7423 24.612 38.4688 24.8855C38.1953 25.159 38.0417 25.5299 38.0417 25.9167V27.375H33.6667V25.9167C33.6667 25.5299 33.513 25.159 33.2395 24.8855C32.9661 24.612 32.5951 24.4583 32.2083 24.4583C31.8216 24.4583 31.4506 24.612 31.1771 24.8855C30.9037 25.159 30.75 25.5299 30.75 25.9167V27.375H28.0156C26.8074 27.3766 25.6492 27.8572 24.7948 28.7115C23.9405 29.5658 23.4599 30.7241 23.4583 31.9323V36.125H55.5417V31.9323C55.5401 30.7241 55.0595 29.5658 54.2052 28.7115C53.3509 27.8572 52.1926 27.3766 50.9844 27.375Z" fill="white"/>
<path d="M23.4583 51.9844C23.4599 53.1926 23.9405 54.3509 24.7948 55.2052C25.6492 56.0595 26.8074 56.5401 28.0156 56.5417H50.9844C52.1926 56.5401 53.3509 56.0595 54.2052 55.2052C55.0595 54.3509 55.5401 53.1926 55.5417 51.9844V39.0417H23.4583V51.9844ZM34.094 46.1248C34.3674 45.8514 34.7383 45.6978 35.125 45.6978C35.5117 45.6978 35.8826 45.8514 36.1561 46.1248L38.0417 48.009L42.844 43.2081C43.119 42.9425 43.4874 42.7955 43.8698 42.7988C44.2521 42.8022 44.6179 42.9555 44.8883 43.2259C45.1587 43.4963 45.312 43.8621 45.3154 44.2444C45.3187 44.6268 45.1717 44.9952 44.9061 45.2702L39.0727 51.1036C38.7992 51.377 38.4284 51.5305 38.0417 51.5305C37.655 51.5305 37.2841 51.377 37.0106 51.1036L34.094 48.1869C33.8206 47.9134 33.667 47.5426 33.667 47.1559C33.667 46.7692 33.8206 46.3983 34.094 46.1248Z" fill="white"/>
</svg>
