<svg width="80" height="80" viewBox="0 0 80 80" fill="none" xmlns="http://www.w3.org/2000/svg">
<circle cx="40" cy="40" r="40" fill="#0000FF"/>
<g clip-path="url(#clip0_3_172)">
<path d="M39.5 23.0007C29.836 23.0007 22 30.8352 22 40.4999C22 50.1646 29.8353 57.9991 39.5 57.9991C49.1655 57.9991 57 50.1646 57 40.4999C57 30.8352 49.1655 23.0007 39.5 23.0007ZM39.5 28.2331C42.6978 28.2331 45.289 30.8252 45.289 34.0214C45.289 37.2184 42.6978 39.8096 39.5 39.8096C36.3038 39.8096 33.7125 37.2184 33.7125 34.0214C33.7125 30.8252 36.3038 28.2331 39.5 28.2331ZM39.4962 53.4239C36.3069 53.4239 33.3858 52.2624 31.1328 50.3399C30.584 49.8718 30.2673 49.1853 30.2673 48.4651C30.2673 45.2235 32.8908 42.6292 36.1331 42.6292H42.8684C46.1115 42.6292 48.725 45.2235 48.725 48.4651C48.725 49.1861 48.4099 49.871 47.8603 50.3391C45.608 52.2624 42.6862 53.4239 39.4962 53.4239Z" fill="white"/>
</g>
<defs>
<clipPath id="clip0_3_172">
<rect width="35" height="35" fill="white" transform="translate(22 23)"/>
</clipPath>
</defs>
</svg>
