<svg width="80" height="80" viewBox="0 0 80 80" fill="none" xmlns="http://www.w3.org/2000/svg">
<circle cx="40" cy="40" r="40" fill="#0000FF"/>
<g clip-path="url(#clip0_3_161)">
<path d="M23.0486 38.3773C22.4768 38.3773 22.0132 38.8409 22.0132 39.4127V54.6198C22.0132 55.1916 22.4769 55.6552 23.0486 55.6552H29.2866V38.3773H23.0486Z" fill="white"/>
<path d="M56.9868 44.0949C56.9868 42.7805 56.2805 41.628 55.2277 40.9967C55.6311 40.4142 55.8676 39.7076 55.8676 38.947C55.8676 36.9568 54.2485 35.3377 52.2583 35.3377H44.6391C44.8726 34.2795 45.192 32.6915 45.4144 31.0292C45.9931 26.7034 45.5976 24.3043 44.1698 23.4793C43.2796 22.965 42.3198 22.8607 41.4672 23.1853C40.8086 23.4361 39.9191 24.0529 39.4122 25.5668L37.4097 30.81C36.3945 33.3172 33.2856 35.9494 31.3575 37.4049V56.1134C34.9309 57.3654 38.6598 58.0001 42.464 58.0001H50.766C52.7561 58.0001 54.3753 56.3809 54.3753 54.3908C54.3753 53.6938 54.1767 53.0424 53.8332 52.4901C55.0364 51.9041 55.8675 50.6686 55.8675 49.2428C55.8675 48.4821 55.6309 47.7756 55.2275 47.1931C56.2805 46.5618 56.9868 45.4092 56.9868 44.0949Z" fill="white"/>
</g>
<defs>
<clipPath id="clip0_3_161">
<rect width="35" height="35" fill="white" transform="translate(22 23)"/>
</clipPath>
</defs>
</svg>
